<?xml version="1.0" encoding="utf-8"?>
<!-- Generator: Adobe Illustrator 22.1.0, SVG Export Plug-In . SVG Version: 6.00 Build 0)  -->
<svg version="1.1" id="图层_1" xmlns="http://www.w3.org/2000/svg" xmlns:xlink="http://www.w3.org/1999/xlink" x="0px" y="0px"
	 viewBox="0 0 1200 460" style="enable-background:new 0 0 1200 460;" xml:space="preserve">
<style type="text/css">
	.st0{fill:none;}
	.st1{opacity:6.000000e-02;enable-background:new    ;}
	.st2{fill:url(#path-2_2_);}
	.st3{fill:url(#path-2_4_);fill-opacity:2.411685e-02;}
	.st4{fill:#292F36;}
	.st5{fill:url(#path-5_2_);fill-opacity:2.411685e-02;}
	.st6{fill:#13191F;}
	.st7{fill:url(#path-8_2_);fill-opacity:2.411685e-02;}
	.st8{fill:#6B62B1;}
	.st9{fill:url(#path-11_2_);fill-opacity:2.411685e-02;}
	.st10{opacity:0.1;enable-background:new    ;}
	.st11{fill:#EFEFEF;}
	.st12{fill:url(#path-14_2_);fill-opacity:2.000000e-02;}
	.st13{fill:#FFFFFF;}
	.st14{fill:url(#path-17_2_);fill-opacity:2.000000e-02;}
	.st15{fill:#7B7B7B;}
	.st16{fill:#CCCCCC;}
	.st17{fill:#999999;}
	.st18{fill:#666666;}
	.st19{fill:url(#path-20_2_);fill-opacity:2.000000e-02;}
	.st20{fill-opacity:0.1;}
	.st21{fill:#E8E5E5;}
	.st22{fill:url(#path-23_2_);fill-opacity:2.000000e-02;}
	.st23{fill:#FDAD5F;}
	.st24{fill:#588CBE;}
	.st25{fill:#E86E6E;}
	.st26{fill:#B6B6B6;}
	.st27{fill:url(#path-26_2_);fill-opacity:2.411685e-02;}
	.st28{fill:#D6D4D4;}
	.st29{fill:url(#path-29_2_);fill-opacity:2.411685e-02;}
	.st30{fill:#C1C1C1;}
	.st31{fill:url(#path-32_2_);fill-opacity:2.411685e-02;}
	.st32{fill:#515D6B;}
	.st33{fill:url(#path-35_2_);fill-opacity:2.000000e-02;}
	.st34{fill:url(#path-38_2_);fill-opacity:2.411685e-02;}
	.st35{fill:url(#path-41_2_);fill-opacity:2.411685e-02;}
	.st36{fill:#6B7A8C;}
	.st37{fill:url(#path-44_2_);fill-opacity:2.000000e-02;}
	.st38{fill:#5D6B7A;}
	.st39{fill:url(#path-47_2_);fill-opacity:2.000000e-02;}
	.st40{fill:url(#path-50_2_);fill-opacity:2.000000e-02;}
	.st41{fill:#6EC2E8;}
	.st42{fill:url(#path-53_2_);fill-opacity:2.000000e-02;}
	.st43{fill:url(#path-56_2_);fill-opacity:2.000000e-02;}
	.st44{fill:url(#path-59_2_);fill-opacity:2.000000e-02;}
	.st45{fill:none;stroke:#E86E6E;stroke-width:2;}
	.st46{fill:url(#path-62_2_);fill-opacity:2.000000e-02;}
	.st47{fill:url(#path-66_2_);}
	.st48{fill:url(#path-66_4_);fill-opacity:2.000000e-02;}
	.st49{fill:#5190B2;}
	.st50{fill:url(#path-69_2_);fill-opacity:2.000000e-02;}
	.st51{fill:url(#path-73_2_);}
	.st52{fill:url(#path-73_4_);fill-opacity:2.411685e-02;}
	.st53{fill:#525252;}
	.st54{fill:url(#path-76_2_);fill-opacity:2.411685e-02;}
	.st55{fill:url(#path-79_2_);fill-opacity:2.411685e-02;}
	.st56{fill:url(#path-82_2_);fill-opacity:2.000000e-02;}
	.st57{fill:url(#path-85_2_);fill-opacity:2.000000e-02;}
	.st58{fill:url(#path-88_2_);fill-opacity:2.000000e-02;}
	.st59{fill:#C8C8C8;}
	.st60{fill:#D8D8D8;}
	.st61{fill:url(#path-92_2_);}
	.st62{fill:url(#path-92_4_);fill-opacity:2.000000e-02;}
	.st63{fill:url(#Oval-22_2_);}
	.st64{fill:url(#path-96_2_);}
	.st65{fill:url(#path-96_4_);fill-opacity:2.000000e-02;}
	.st66{fill:#EBEBEB;}
	.st67{fill:url(#path-99_2_);fill-opacity:2.411685e-02;}
	.st68{fill:#FDD75F;}
	.st69{fill:url(#path-102_2_);fill-opacity:2.000000e-02;}
	.st70{fill:#CFA836;}
	.st71{fill:url(#path-105_2_);fill-opacity:2.000000e-02;}
	.st72{fill:none;stroke:#FFFFFF;stroke-width:1.2;stroke-linecap:round;stroke-linejoin:round;}
	.st73{fill:url(#path-108_2_);fill-opacity:2.411685e-02;}
	.st74{fill:url(#path-111_2_);fill-opacity:2.000000e-02;}
	.st75{fill:url(#path-114_2_);fill-opacity:2.000000e-02;}
	.st76{fill:#525B65;}
</style>
<pattern  y="460" width="258" height="258" patternUnits="userSpaceOnUse" id="pattern-100" viewBox="0 -258 258 258" style="overflow:visible;">
	<g>
		<rect y="-258" class="st0" width="258" height="258"/>
		<g>
			
				<image style="overflow:visible;enable-background:new    ;" width="258" height="258" id="image-101_1_" xlink:href="D496AB5AA2B8E942.png"  transform="matrix(1 0 0 -1 253.75 -258)">
			</image>
		</g>
	</g>
</pattern>
<pattern  y="460" width="258" height="258" patternUnits="userSpaceOnUse" id="pattern-103" viewBox="0 -258 258 258" style="overflow:visible;">
	<g>
		<rect y="-258" class="st0" width="258" height="258"/>
		<g>
			
				<image style="overflow:visible;enable-background:new    ;" width="258" height="258" id="image-104_1_" xlink:href="D496AB5AA2B8E946.png"  transform="matrix(1 0 0 -1 258 -238.718)">
			</image>
		</g>
	</g>
</pattern>
<pattern  y="460" width="258" height="258" patternUnits="userSpaceOnUse" id="pattern-106" viewBox="0 -258 258 258" style="overflow:visible;">
	<g>
		<rect y="-258" class="st0" width="258" height="258"/>
		<g>
			
				<image style="overflow:visible;enable-background:new    ;" width="258" height="258" id="image-107_1_" xlink:href="D496AB5AA2B8E941.png"  transform="matrix(1 0 0 -1 244.6429 -232.0897)">
			</image>
		</g>
	</g>
</pattern>
<pattern  y="460" width="258" height="258" patternUnits="userSpaceOnUse" id="pattern-109" viewBox="0 -258 258 258" style="overflow:visible;">
	<g>
		<rect y="-258" class="st0" width="258" height="258"/>
		<g>
			
				<image style="overflow:visible;enable-background:new    ;" width="258" height="258" id="image-110_1_" xlink:href="D496AB5AA2B8E943.png"  transform="matrix(1 0 0 -1 258 -258)">
			</image>
		</g>
	</g>
</pattern>
<pattern  y="460" width="258" height="258" patternUnits="userSpaceOnUse" id="pattern-112" viewBox="0 -258 258 258" style="overflow:visible;">
	<g>
		<rect y="-258" class="st0" width="258" height="258"/>
		<g>
			
				<image style="overflow:visible;enable-background:new    ;" width="258" height="258" id="image-113_1_" xlink:href="D496AB5AA2B8E940.png"  transform="matrix(1 0 0 -1 256 -256)">
			</image>
		</g>
	</g>
</pattern>
<pattern  y="460" width="258" height="258" patternUnits="userSpaceOnUse" id="pattern-115" viewBox="0 -258 258 258" style="overflow:visible;">
	<g>
		<rect y="-258" class="st0" width="258" height="258"/>
		<g>
			
				<image style="overflow:visible;enable-background:new    ;" width="258" height="258" id="image-116_1_" xlink:href="D496AB5AA2B8E94E.png"  transform="matrix(1 0 0 -1 256 -241)">
			</image>
		</g>
	</g>
</pattern>
<pattern  y="460" width="258" height="258" patternUnits="userSpaceOnUse" id="pattern-12" viewBox="0 -258 258 258" style="overflow:visible;">
	<g>
		<rect y="-258" class="st0" width="258" height="258"/>
		<g>
			
				<image style="overflow:visible;enable-background:new    ;" width="258" height="258" id="image-13_1_" xlink:href="D496AB5AA2B8E945.png"  transform="matrix(1 0 0 -1 245 -245)">
			</image>
		</g>
	</g>
</pattern>
<pattern  y="460" width="258" height="258" patternUnits="userSpaceOnUse" id="pattern-15" viewBox="0 -258 258 258" style="overflow:visible;">
	<g>
		<rect y="-258" class="st0" width="258" height="258"/>
		<g>
			
				<image style="overflow:visible;enable-background:new    ;" width="258" height="258" id="image-16_1_" xlink:href="D496AB5AA2B8E947.png"  transform="matrix(1 0 0 -1 258 -258)">
			</image>
		</g>
	</g>
</pattern>
<pattern  y="460" width="258" height="258" patternUnits="userSpaceOnUse" id="pattern-18" viewBox="0 -258 258 258" style="overflow:visible;">
	<g>
		<rect y="-258" class="st0" width="258" height="258"/>
		<g>
			
				<image style="overflow:visible;enable-background:new    ;" width="258" height="258" id="image-19_1_" xlink:href="D496AB5AA2B8E944.png"  transform="matrix(1 0 0 -1 250 -216)">
			</image>
		</g>
	</g>
</pattern>
<pattern  y="460" width="258" height="258" patternUnits="userSpaceOnUse" id="pattern-21" viewBox="0 -258 258 258" style="overflow:visible;">
	<g>
		<rect y="-258" class="st0" width="258" height="258"/>
		<g>
			
				<image style="overflow:visible;enable-background:new    ;" width="258" height="258" id="image-22_1_" xlink:href="B9C6C41984B9B6D5.png"  transform="matrix(1 0 0 -1 66 -216)">
			</image>
		</g>
	</g>
</pattern>
<pattern  y="460" width="258" height="258" patternUnits="userSpaceOnUse" id="pattern-24" viewBox="0 -258 258 258" style="overflow:visible;">
	<g>
		<rect y="-258" class="st0" width="258" height="258"/>
		<g>
			
				<image style="overflow:visible;enable-background:new    ;" width="258" height="258" id="image-25_1_" xlink:href="B9C6C41984B9B6EB.png"  transform="matrix(1 0 0 -1 258 -258)">
			</image>
		</g>
	</g>
</pattern>
<pattern  y="460" width="258" height="258" patternUnits="userSpaceOnUse" id="pattern-27" viewBox="0 -258 258 258" style="overflow:visible;">
	<g>
		<rect y="-258" class="st0" width="258" height="258"/>
		<g>
			
				<image style="overflow:visible;enable-background:new    ;" width="258" height="258" id="image-28_1_" xlink:href="B9C6C41984B9B6ED.png"  transform="matrix(1 0 0 -1 118 -18)">
			</image>
		</g>
	</g>
</pattern>
<pattern  y="460" width="258" height="258" patternUnits="userSpaceOnUse" id="pattern-3" viewBox="0 -258 258 258" style="overflow:visible;">
	<g>
		<rect y="-258" class="st0" width="258" height="258"/>
		<g>
			
				<image style="overflow:visible;enable-background:new    ;" width="258" height="258" id="image-4_1_" xlink:href="B9C6C41984B9B6EF.png"  transform="matrix(1 0 0 -1 258 -258)">
			</image>
		</g>
	</g>
</pattern>
<pattern  y="460" width="258" height="258" patternUnits="userSpaceOnUse" id="pattern-30" viewBox="0 -263 258 258" style="overflow:visible;">
	<g>
		<rect y="-263" class="st0" width="258" height="258"/>
		<g>
			
				<image style="overflow:visible;enable-background:new    ;" width="258" height="258" id="image-31_1_" xlink:href="B9C6C41984B9B6EC.png"  transform="matrix(1 0 0 -1 148 0)">
			</image>
		</g>
	</g>
</pattern>
<pattern  y="460" width="258" height="258" patternUnits="userSpaceOnUse" id="pattern-33" viewBox="0 -258 258 258" style="overflow:visible;">
	<g>
		<rect y="-258" class="st0" width="258" height="258"/>
		<g>
			
				<image style="overflow:visible;enable-background:new    ;" width="258" height="258" id="image-34_1_" xlink:href="B9C6C41984B9B6F4.png"  transform="matrix(1 0 0 -1 95 -45)">
			</image>
		</g>
	</g>
</pattern>
<pattern  y="460" width="258" height="258" patternUnits="userSpaceOnUse" id="pattern-36" viewBox="0 -258 258 258" style="overflow:visible;">
	<g>
		<rect y="-258" class="st0" width="258" height="258"/>
		<g>
			
				<image style="overflow:visible;enable-background:new    ;" width="258" height="258" id="image-37_1_" xlink:href="B9C6C41984B9B6F5.png"  transform="matrix(1 0 0 -1 243 -258)">
			</image>
		</g>
	</g>
</pattern>
<pattern  y="460" width="258" height="258" patternUnits="userSpaceOnUse" id="pattern-39" viewBox="0 -258 258 258" style="overflow:visible;">
	<g>
		<rect y="-258" class="st0" width="258" height="258"/>
		<g>
			
				<image style="overflow:visible;enable-background:new    ;" width="258" height="258" id="image-40_1_" xlink:href="B9C6C41984B9B6F7.png"  transform="matrix(1 0 0 -1 235 -250)">
			</image>
		</g>
	</g>
</pattern>
<pattern  y="460" width="258" height="258" patternUnits="userSpaceOnUse" id="pattern-42" viewBox="0 -258 258 258" style="overflow:visible;">
	<g>
		<rect y="-258" class="st0" width="258" height="258"/>
		<g>
			
				<image style="overflow:visible;enable-background:new    ;" width="258" height="258" id="image-43_1_" xlink:href="B9C6C41984B9B6F3.png"  transform="matrix(1 0 0 -1 233 -248)">
			</image>
		</g>
	</g>
</pattern>
<pattern  y="460" width="258" height="258" patternUnits="userSpaceOnUse" id="pattern-45" viewBox="0 -258 258 258" style="overflow:visible;">
	<g>
		<rect y="-258" class="st0" width="258" height="258"/>
		<g>
			
				<image style="overflow:visible;enable-background:new    ;" width="258" height="258" id="image-46_1_" xlink:href="B9C6C41984B9B6FB.png"  transform="matrix(1 0 0 -1 258 -141)">
			</image>
		</g>
	</g>
</pattern>
<pattern  y="460" width="258" height="258" patternUnits="userSpaceOnUse" id="pattern-48" viewBox="0 -258 258 258" style="overflow:visible;">
	<g>
		<rect y="-258" class="st0" width="258" height="258"/>
		<g>
			
				<image style="overflow:visible;enable-background:new    ;" width="258" height="258" id="image-49_1_" xlink:href="B9C6C41984B9B710.png"  transform="matrix(1 0 0 -1 258 -258)">
			</image>
		</g>
	</g>
</pattern>
<pattern  y="460" width="258" height="258" patternUnits="userSpaceOnUse" id="pattern-51" viewBox="0 -258 258 258" style="overflow:visible;">
	<g>
		<rect y="-258" class="st0" width="258" height="258"/>
		<g>
			
				<image style="overflow:visible;enable-background:new    ;" width="258" height="258" id="image-52_1_" xlink:href="B9C6C41984B9B713.png"  transform="matrix(1 0 0 -1 253 -244)">
			</image>
		</g>
	</g>
</pattern>
<pattern  y="460" width="258" height="258" patternUnits="userSpaceOnUse" id="pattern-54" viewBox="0 -258 258 258" style="overflow:visible;">
	<g>
		<rect y="-258" class="st0" width="258" height="258"/>
		<g>
			
				<image style="overflow:visible;enable-background:new    ;" width="258" height="258" id="image-55_1_" xlink:href="B9C6C41984B9B711.png"  transform="matrix(1 0 0 -1 258 -258)">
			</image>
		</g>
	</g>
</pattern>
<pattern  y="460" width="258" height="258" patternUnits="userSpaceOnUse" id="pattern-57" viewBox="0 -258 258 258" style="overflow:visible;">
	<g>
		<rect y="-258" class="st0" width="258" height="258"/>
		<g>
			
				<image style="overflow:visible;enable-background:new    ;" width="258" height="258" id="image-58_1_" xlink:href="B9C6C41984B9B71F.png"  transform="matrix(1 0 0 -1 258 -258)">
			</image>
		</g>
	</g>
</pattern>
<pattern  y="460" width="258" height="258" patternUnits="userSpaceOnUse" id="pattern-6" viewBox="0 -258 258 258" style="overflow:visible;">
	<g>
		<rect y="-258" class="st0" width="258" height="258"/>
		<g>
			
				<image style="overflow:visible;enable-background:new    ;" width="258" height="258" id="image-7_1_" xlink:href="B9C6C41984B9B712.png"  transform="matrix(1 0 0 -1 258 -258)">
			</image>
		</g>
	</g>
</pattern>
<pattern  y="460" width="258" height="258" patternUnits="userSpaceOnUse" id="pattern-60" viewBox="0 -258 258 258" style="overflow:visible;">
	<g>
		<rect y="-258" class="st0" width="258" height="258"/>
		<g>
			
				<image style="overflow:visible;enable-background:new    ;" width="258" height="258" id="image-61_1_" xlink:href="B9C6C41984B9B715.png"  transform="matrix(1 0 0 -1 253 -244)">
			</image>
		</g>
	</g>
</pattern>
<pattern  y="460" width="258" height="258" patternUnits="userSpaceOnUse" id="pattern-63" viewBox="0 -258 258 258" style="overflow:visible;">
	<g>
		<rect y="-258" class="st0" width="258" height="258"/>
		<g>
			
				<image style="overflow:visible;enable-background:new    ;" width="258" height="258" id="image-64_1_" xlink:href="B9C6C41984B9B716.png"  transform="matrix(1 0 0 -1 258 -258)">
			</image>
		</g>
	</g>
</pattern>
<pattern  y="460" width="258" height="258" patternUnits="userSpaceOnUse" id="pattern-67" viewBox="0 -258 258 258" style="overflow:visible;">
	<g>
		<rect y="-258" class="st0" width="258" height="258"/>
		<g>
			
				<image style="overflow:visible;enable-background:new    ;" width="258" height="258" id="image-68_1_" xlink:href="B9C6C41984B9B717.png"  transform="matrix(1 0 0 -1 258 -258)">
			</image>
		</g>
	</g>
</pattern>
<pattern  y="460" width="258" height="258" patternUnits="userSpaceOnUse" id="pattern-70" viewBox="0 -258 258 258" style="overflow:visible;">
	<g>
		<rect y="-258" class="st0" width="258" height="258"/>
		<g>
			
				<image style="overflow:visible;enable-background:new    ;" width="258" height="258" id="image-71_1_" xlink:href="B9C6C41984B9B72C.png"  transform="matrix(1 0 0 -1 189 -207)">
			</image>
		</g>
	</g>
</pattern>
<pattern  y="460" width="258" height="258" patternUnits="userSpaceOnUse" id="pattern-74" viewBox="0 -258 258 258" style="overflow:visible;">
	<g>
		<rect y="-258" class="st0" width="258" height="258"/>
		<g>
			
				<image style="overflow:visible;enable-background:new    ;" width="258" height="258" id="image-75_1_" xlink:href="B9C6C41984B9B72D.png"  transform="matrix(1 0 0 -1 258 -258)">
			</image>
		</g>
	</g>
</pattern>
<pattern  y="460" width="258" height="258" patternUnits="userSpaceOnUse" id="pattern-77" viewBox="0 -258 258 258" style="overflow:visible;">
	<g>
		<rect y="-258" class="st0" width="258" height="258"/>
		<g>
			
				<image style="overflow:visible;enable-background:new    ;" width="258" height="258" id="image-78_1_" xlink:href="B9C6C41984B9B737.png"  transform="matrix(1 0 0 -1 248 -252)">
			</image>
		</g>
	</g>
</pattern>
<pattern  y="460" width="258" height="258" patternUnits="userSpaceOnUse" id="pattern-80" viewBox="0 -258 258 258" style="overflow:visible;">
	<g>
		<rect y="-258" class="st0" width="258" height="258"/>
		<g>
			
				<image style="overflow:visible;enable-background:new    ;" width="258" height="258" id="image-81_1_" xlink:href="B9C6C41984B9B735.png"  transform="matrix(1 0 0 -1 246 -250)">
			</image>
		</g>
	</g>
</pattern>
<pattern  y="460" width="258" height="258" patternUnits="userSpaceOnUse" id="pattern-83" viewBox="0 -258 258 258" style="overflow:visible;">
	<g>
		<rect y="-258" class="st0" width="258" height="258"/>
		<g>
			
				<image style="overflow:visible;enable-background:new    ;" width="258" height="258" id="image-84_1_" xlink:href="B9C6C41984B9B70B.png"  transform="matrix(1 0 0 -1 258 -258)">
			</image>
		</g>
	</g>
</pattern>
<pattern  y="460" width="258" height="258" patternUnits="userSpaceOnUse" id="pattern-86" viewBox="0 -258 258 258" style="overflow:visible;">
	<g>
		<rect y="-258" class="st0" width="258" height="258"/>
		<g>
			
				<image style="overflow:visible;enable-background:new    ;" width="258" height="258" id="image-87_1_" xlink:href="B9C6C41984B9B70D.png"  transform="matrix(1 0 0 -1 252 -241.2982)">
			</image>
		</g>
	</g>
</pattern>
<pattern  y="460" width="258" height="258" patternUnits="userSpaceOnUse" id="pattern-89" viewBox="0 -258 258 258" style="overflow:visible;">
	<g>
		<rect y="-258" class="st0" width="258" height="258"/>
		<g>
			
				<image style="overflow:visible;enable-background:new    ;" width="258" height="258" id="image-90_1_" xlink:href="B9C6C41984B9B70F.png"  transform="matrix(1 0 0 -1 258 -258)">
			</image>
		</g>
	</g>
</pattern>
<pattern  y="460" width="258" height="258" patternUnits="userSpaceOnUse" id="pattern-9" viewBox="0 -258 258 258" style="overflow:visible;">
	<g>
		<rect y="-258" class="st0" width="258" height="258"/>
		<g>
			
				<image style="overflow:visible;enable-background:new    ;" width="258" height="258" id="image-10_1_" xlink:href="B9C6C41984B9B70A.png"  transform="matrix(1 0 0 -1 248 -248)">
			</image>
		</g>
	</g>
</pattern>
<pattern  y="460" width="258" height="258" patternUnits="userSpaceOnUse" id="pattern-93" viewBox="0 -258 258 258" style="overflow:visible;">
	<g>
		<rect y="-258" class="st0" width="258" height="258"/>
		<g>
			
				<image style="overflow:visible;enable-background:new    ;" width="258" height="258" id="image-94_1_" xlink:href="B9C6C41984B9B709.png"  transform="matrix(1 0 0 -1 258 -258)">
			</image>
		</g>
	</g>
</pattern>
<pattern  y="460" width="258" height="258" patternUnits="userSpaceOnUse" id="pattern-97" viewBox="0 -258 258 258" style="overflow:visible;">
	<g>
		<rect y="-258" class="st0" width="258" height="258"/>
		<g>
			
				<image style="overflow:visible;enable-background:new    ;" width="258" height="258" id="image-98_1_" xlink:href="B9C6C41984B9B718.png"  transform="matrix(1 0 0 -1 241 -241)">
			</image>
		</g>
	</g>
</pattern>
<title>Cloud Computing</title>
<desc>Created with Sketch.</desc>
<g id="Cloud-Computing">
	<g id="Group-96" transform="translate(146.000000, 90.000000)">
		<path id="Rectangle-46" class="st1" d="M8,265h891.7c4.4,0,8,3.6,8,8l0,0c0,4.4-3.6,8-8,8H8c-4.4,0-8-3.6-8-8l0,0
			C0,268.6,3.6,265,8,265z"/>
		<g id="Group-15" transform="translate(412.000000, 0.000000)">
			<g id="Rectangle-47">
				<g>
					
						<linearGradient id="path-2_2_" gradientUnits="userSpaceOnUse" x1="-379.4592" y1="437.8887" x2="-378.6607" y2="437.1649" gradientTransform="matrix(340 0 0 -240 129039 105119.1406)">
						<stop  offset="0" style="stop-color:#B6B6B6"/>
						<stop  offset="1" style="stop-color:#D6D4D4"/>
					</linearGradient>
					<path id="path-2" class="st2" d="M11.3,0h317.3c6.3,0,11.3,5.1,11.3,11.3v217.3c0,6.3-5.1,11.3-11.3,11.3H11.3
						C5.1,240,0,234.9,0,228.7V11.3C0,5.1,5.1,0,11.3,0z"/>
				</g>
				<g>
					<pattern  id="path-2_4_" xlink:href="#pattern-3" patternTransform="matrix(1 0 0 -1 121 -16527.1738)">
					</pattern>
					<path id="path-2_1_" class="st3" d="M11.3,0h317.3c6.3,0,11.3,5.1,11.3,11.3v217.3c0,6.3-5.1,11.3-11.3,11.3H11.3
						C5.1,240,0,234.9,0,228.7V11.3C0,5.1,5.1,0,11.3,0z"/>
				</g>
			</g>
			<g id="Rectangle-47_1_">
				<g>
					<path id="path-5" class="st4" d="M10,0h320c5.5,0,10,4.5,10,10v190H0V10C0,4.5,4.5,0,10,0z"/>
				</g>
				<g>
					<pattern  id="path-5_2_" xlink:href="#pattern-6" patternTransform="matrix(1 0 0 -1 121 -16527.1738)">
					</pattern>
					<path id="path-5_1_" class="st5" d="M10,0h320c5.5,0,10,4.5,10,10v190H0V10C0,4.5,4.5,0,10,0z"/>
				</g>
			</g>
			<g id="Rectangle-47_2_">
				<g>
					<path id="path-8" class="st6" d="M17,10h306c3.9,0,7,3.1,7,7v173H10V17C10,13.1,13.1,10,17,10z"/>
				</g>
				<g>
					<pattern  id="path-8_2_" xlink:href="#pattern-9" patternTransform="matrix(1 0 0 -1 131 -16537.1738)">
					</pattern>
					<path id="path-8_1_" class="st7" d="M17,10h306c3.9,0,7,3.1,7,7v173H10V17C10,13.1,13.1,10,17,10z"/>
				</g>
			</g>
			<g id="Rectangle-22">
				<g>
					<path id="path-11" class="st8" d="M17,13h306.5c2.2,0,4,1.8,4,4v170H13V17C13,14.8,14.8,13,17,13z"/>
				</g>
				<g>
					<pattern  id="path-11_2_" xlink:href="#pattern-12" patternTransform="matrix(1 0 0 -1 134 -16540.1738)">
					</pattern>
					<path id="path-11_1_" class="st9" d="M17,13h306.5c2.2,0,4,1.8,4,4v170H13V17C13,14.8,14.8,13,17,13z"/>
				</g>
			</g>
			<g id="Group-6" transform="translate(41.000000, 31.000000)">
				<path id="Rectangle-25" class="st10" d="M3.2,5h253.6c1.8,0,3.2,1.4,3.2,3.2v135.6c0,1.8-1.4,3.2-3.2,3.2H3.2
					c-1.8,0-3.2-1.4-3.2-3.2V8.2C0,6.4,1.4,5,3.2,5z"/>
				<g id="Rectangle-25_1_">
					<g>
						<path id="path-14" class="st11" d="M3.2,0h253.6c1.8,0,3.2,1.4,3.2,3.2v135.6c0,1.8-1.4,3.2-3.2,3.2H3.2
							c-1.8,0-3.2-1.4-3.2-3.2V3.2C0,1.4,1.4,0,3.2,0z"/>
					</g>
					<g>
						<pattern  id="path-14_2_" xlink:href="#pattern-15" patternTransform="matrix(1 0 0 -1 162 -16558.1738)">
						</pattern>
						<path id="path-14_1_" class="st12" d="M3.2,0h253.6c1.8,0,3.2,1.4,3.2,3.2v135.6c0,1.8-1.4,3.2-3.2,3.2H3.2
							c-1.8,0-3.2-1.4-3.2-3.2V3.2C0,1.4,1.4,0,3.2,0z"/>
					</g>
				</g>
				<g id="Rectangle-26">
					<g>
						<polygon id="path-17" class="st13" points="8,42 182,42 182,142 8,142 						"/>
					</g>
					<g>
						<pattern  id="path-17_2_" xlink:href="#pattern-18" patternTransform="matrix(1 0 0 -1 170 -16600.1738)">
						</pattern>
						<polygon id="path-17_1_" class="st14" points="8,42 182,42 182,142 8,142 						"/>
					</g>
				</g>
				<rect id="Rectangle-67" x="8" y="21" class="st15" width="33" height="11"/>
				<polygon id="Path-3" class="st16" points="20,59.5 20,53.5 97,53.5 97,59.5 				"/>
				<polygon id="Path-3_1_" class="st16" points="20,69.5 20,65.5 169.4,65.5 169.4,69.5 				"/>
				<polygon id="Path-3_2_" class="st16" points="20,75.5 20,71.5 147.9,71.5 147.9,75.5 				"/>
				<rect id="Rectangle-68" x="20" y="82" class="st17" width="151" height="60"/>
				<path id="Rectangle-69" class="st18" d="M86,110h20c2.2,0,4,1.8,4,4v12c0,2.2-1.8,4-4,4H86c-2.2,0-4-1.8-4-4v-12
					C82,111.8,83.8,110,86,110z"/>
				<path id="Path-13" class="st13" d="M92,116.1v7.8c0,0.7,0.5,1.2,1.2,1.2c0.2,0,0.4-0.1,0.6-0.2l6.4-3.9c0.6-0.3,0.7-1.1,0.4-1.6
					c-0.1-0.2-0.2-0.3-0.4-0.4l-6.4-3.9c-0.6-0.3-1.3-0.2-1.6,0.4C92.1,115.7,92,115.9,92,116.1z"/>
				<g id="Rectangle-26_1_" transform="translate(222.000000, 92.000000) scale(-1, 1) translate(-222.000000, -92.000000) ">
					<g>
						<rect id="path-20" x="192" y="142" class="st13" width="60" height="-100"/>
					</g>
					<g>
						<pattern  id="path-20_2_" xlink:href="#pattern-21" patternTransform="matrix(-1 0 0 -1 -14254 -16600.1738)">
						</pattern>
						<rect id="path-20_1_" x="192" y="142" class="st19" width="60" height="-100"/>
					</g>
				</g>
				<rect id="Rectangle-68_1_" x="197" y="47" class="st17" width="18" height="11"/>
				<rect id="Rectangle-68-Copy" x="197" y="66" class="st17" width="18" height="11"/>
				<polygon id="Path-3-Copy-4" class="st16" points="219,89 219,85 247,85 247,89 				"/>
				<polygon id="Path-3-Copy-5" class="st16" points="219,96 219,92 237.3,92 237.3,96 				"/>
				<rect id="Rectangle-68-Copy_1_" x="197" y="85" class="st17" width="18" height="11"/>
				<polygon id="Path-3-Copy-4_1_" class="st16" points="219,108 219,104 247,104 247,108 				"/>
				<polygon id="Path-3-Copy-5_1_" class="st16" points="219,115 219,111 237.3,111 237.3,115 				"/>
				<rect id="Rectangle-68-Copy_2_" x="197" y="104" class="st17" width="18" height="11"/>
				<polygon id="Path-3-Copy-4_2_" class="st16" points="219,127 219,123 247,123 247,127 				"/>
				<polygon id="Path-3-Copy-5_2_" class="st16" points="219,134 219,130 237.3,130 237.3,134 				"/>
				<rect id="Rectangle-68-Copy_3_" x="197" y="123" class="st17" width="18" height="11"/>
				<rect id="Rectangle-26_2_" x="192" y="39" class="st10" width="60" height="3"/>
				<rect id="Rectangle-26_3_" x="8" y="39" class="st20" width="174" height="3"/>
				<polygon id="Path-3_3_" class="st15" points="241,29 241,25 252.3,25 252.3,29 				"/>
				<polygon id="Path-3_4_" class="st15" points="221,29 221,25 232.3,25 232.3,29 				"/>
				<polygon id="Path-3_5_" class="st15" points="201,29 201,25 212.3,25 212.3,29 				"/>
				<polygon id="Path-3_6_" class="st15" points="181,29 181,25 192.3,25 192.3,29 				"/>
				<polygon id="Path-3_7_" class="st15" points="161,29 161,25 172.3,25 172.3,29 				"/>
				<polygon id="Path-3_8_" class="st16" points="219,51 219,47 247,47 247,51 				"/>
				<polygon id="Path-3-Copy-4_3_" class="st16" points="219,70 219,66 247,66 247,70 				"/>
				<polygon id="Path-3_9_" class="st16" points="219,58 219,54 237.3,54 237.3,58 				"/>
				<polygon id="Path-3-Copy-5_3_" class="st16" points="219,77 219,73 237.3,73 237.3,77 				"/>
				<g id="Rectangle-25_2_">
					<g>
						<path id="path-23" class="st21" d="M3.2,0h253.6c1.8,0,3.2,1.4,3.2,3.2V13H0V3.2C0,1.4,1.4,0,3.2,0z"/>
					</g>
					<g>
						<pattern  id="path-23_2_" xlink:href="#pattern-24" patternTransform="matrix(1 0 0 -1 162 -16558.1738)">
						</pattern>
						<path id="path-23_1_" class="st22" d="M3.2,0h253.6c1.8,0,3.2,1.4,3.2,3.2V13H0V3.2C0,1.4,1.4,0,3.2,0z"/>
					</g>
				</g>
				<circle id="Oval-6-Copy" class="st23" cx="12.5" cy="6.5" r="1.5"/>
				<circle id="Oval-6-Copy_1_" class="st24" cx="19.5" cy="6.5" r="1.5"/>
				<circle id="Oval-6-Copy_2_" class="st25" cx="6.5" cy="6.5" r="1.5"/>
			</g>
			<g id="Rectangle-49">
				<g>
					<rect id="path-26" x="140" y="240" class="st26" width="60" height="23"/>
				</g>
				<g>
					<pattern  id="path-26_2_" xlink:href="#pattern-27" patternTransform="matrix(1 0 0 -1 261 -16767.1738)">
					</pattern>
					<rect id="path-26_1_" x="140" y="240" class="st27" width="60" height="23"/>
				</g>
			</g>
			<g id="Rectangle-50">
				<g>
					<rect id="path-29" x="110" y="263" class="st28" width="120" height="8"/>
				</g>
				<g>
					<pattern  id="path-29_2_" xlink:href="#pattern-30" patternTransform="matrix(1 0 0 -1 231 -16800.1738)">
					</pattern>
					<rect id="path-29_1_" x="110" y="263" class="st29" width="120" height="8"/>
				</g>
			</g>
			<rect id="Rectangle-51" x="140" y="240" class="st10" width="60" height="8"/>
			<g id="Oval-12">
				<g>
					<circle id="path-32" class="st30" cx="170.5" cy="220.5" r="7.5"/>
				</g>
				<g>
					<pattern  id="path-32_2_" xlink:href="#pattern-33" patternTransform="matrix(1 0 0 -1 284 -16740.1738)">
					</pattern>
					<circle id="path-32_1_" class="st31" cx="170.5" cy="220.5" r="7.5"/>
				</g>
			</g>
		</g>
		<g id="Group-5" transform="translate(72.000000, 147.000000)">
			<g id="Rectangle-22_1_">
				<g>
					<path id="path-35" class="st32" d="M25,0h160c5.5,0,10,4.5,10,10v110H15V10C15,4.5,19.5,0,25,0z"/>
				</g>
				<g>
					<pattern  id="path-35_2_" xlink:href="#pattern-36" patternTransform="matrix(1 0 0 -1 -204 -16674.1738)">
					</pattern>
					<path id="path-35_1_" class="st33" d="M25,0h160c5.5,0,10,4.5,10,10v110H15V10C15,4.5,19.5,0,25,0z"/>
				</g>
			</g>
			<g id="Rectangle-22_2_">
				<g>
					<path id="path-38" class="st4" d="M29,8h152c3.3,0,6,2.7,6,6v98H23V14C23,10.7,25.7,8,29,8z"/>
				</g>
				<g>
					<pattern  id="path-38_2_" xlink:href="#pattern-39" patternTransform="matrix(1 0 0 -1 -196 -16682.1738)">
					</pattern>
					<path id="path-38_1_" class="st34" d="M29,8h152c3.3,0,6,2.7,6,6v98H23V14C23,10.7,25.7,8,29,8z"/>
				</g>
			</g>
			<g id="Rectangle-22_3_">
				<g>
					<path id="path-41" class="st24" d="M29,10h152c2.2,0,4,1.8,4,4v96H25V14C25,11.8,26.8,10,29,10z"/>
				</g>
				<g>
					<pattern  id="path-41_2_" xlink:href="#pattern-42" patternTransform="matrix(1 0 0 -1 -194 -16684.1738)">
					</pattern>
					<path id="path-41_1_" class="st35" d="M29,10h152c2.2,0,4,1.8,4,4v96H25V14C25,11.8,26.8,10,29,10z"/>
				</g>
			</g>
			<circle id="Oval-6" class="st24" cx="105.5" cy="4.5" r="1.5"/>
			<g id="Rectangle-23">
				<g>
					<rect id="path-44" y="117" class="st36" width="210" height="10"/>
				</g>
				<g>
					<pattern  id="path-44_2_" xlink:href="#pattern-45" patternTransform="matrix(1 0 0 -1 -219 -16791.1738)">
					</pattern>
					<rect id="path-44_1_" y="117" class="st37" width="210" height="10"/>
				</g>
			</g>
			<rect id="Rectangle-24" x="90" y="117" class="st38" width="30" height="4"/>
			<rect id="Rectangle-24_1_" y="123" class="st20" width="210" height="4"/>
			<g id="Group-6_1_" transform="translate(33.000000, 19.000000)">
				<rect id="Rectangle-25_3_" y="3" class="st10" width="100" height="70"/>
				<g id="Rectangle-25_4_">
					<g>
						<rect id="path-47" y="0" class="st11" width="100" height="70"/>
					</g>
					<g>
						<pattern  id="path-47_2_" xlink:href="#pattern-48" patternTransform="matrix(1 0 0 -1 -186 -16693.1738)">
						</pattern>
						<rect id="path-47_1_" y="0" class="st39" width="100" height="70"/>
					</g>
				</g>
				<g id="Rectangle-26_4_">
					<g>
						<rect id="path-50" x="5" y="14" class="st13" width="90" height="56"/>
					</g>
					<g>
						<pattern  id="path-50_2_" xlink:href="#pattern-51" patternTransform="matrix(1 0 0 -1 -181 -16707.1738)">
						</pattern>
						<rect id="path-50_1_" x="5" y="14" class="st40" width="90" height="56"/>
					</g>
				</g>
				<rect id="Rectangle-26_5_" x="5" y="12" class="st20" width="90" height="2"/>
				<polygon id="Path-3_10_" class="st15" points="12.8,25.8 12.8,21.8 60.6,21.8 60.6,25.8 				"/>
				<polygon id="Path-3_11_" class="st15" points="12.8,36.8 12.8,32.8 40.6,32.8 40.6,36.8 				"/>
				<polygon id="Path-3_12_" class="st15" points="12.8,43.8 12.8,39.8 40.6,39.8 40.6,43.8 				"/>
				<polygon id="Path-3_13_" class="st15" points="12.8,50.8 12.8,46.8 30.6,46.8 30.6,50.8 				"/>
				<rect id="Rectangle-27" x="79" y="36" class="st25" width="6" height="34"/>
				<rect id="Rectangle-27-Copy" x="69" y="46" class="st41" width="6" height="24"/>
				<rect id="Rectangle-27-Copy-2" x="60" y="56" class="st23" width="6" height="14"/>
				<g id="Rectangle-25_5_">
					<g>
						<path id="path-53" class="st21" d="M2,0h96c1.1,0,2,0.9,2,2v6H0V2C0,0.9,0.9,0,2,0z"/>
					</g>
					<g>
						<pattern  id="path-53_2_" xlink:href="#pattern-54" patternTransform="matrix(1 0 0 -1 -186 -16693.1738)">
						</pattern>
						<path id="path-53_1_" class="st42" d="M2,0h96c1.1,0,2,0.9,2,2v6H0V2C0,0.9,0.9,0,2,0z"/>
					</g>
				</g>
				<circle id="Oval-6-Copy_3_" class="st23" cx="8" cy="4" r="1"/>
				<circle id="Oval-6-Copy_4_" class="st24" cx="12" cy="4" r="1"/>
				<circle id="Oval-6-Copy_5_" class="st25" cx="4" cy="4" r="1"/>
			</g>
			<g id="Group-6_2_" transform="translate(127.000000, 41.000000)">
				<rect id="Rectangle-25_6_" y="3" class="st10" width="50" height="60"/>
				<g id="Rectangle-25_7_">
					<g>
						<rect id="path-56" y="0" class="st11" width="50" height="60"/>
					</g>
					<g>
						<pattern  id="path-56_2_" xlink:href="#pattern-57" patternTransform="matrix(1 0 0 -1 -92 -16715.1738)">
						</pattern>
						<rect id="path-56_1_" y="0" class="st43" width="50" height="60"/>
					</g>
				</g>
				<g id="Rectangle-26_6_">
					<g>
						<rect id="path-59" x="5" y="14" class="st13" width="40" height="46"/>
					</g>
					<g>
						<pattern  id="path-59_2_" xlink:href="#pattern-60" patternTransform="matrix(1 0 0 -1 -87 -16729.1738)">
						</pattern>
						<rect id="path-59_1_" x="5" y="14" class="st44" width="40" height="46"/>
					</g>
				</g>
				<polyline id="Path-7" class="st45" points="11.8,50 20.3,42.2 26.5,48.9 40.7,36.7 				"/>
				<circle id="Oval-7" class="st25" cx="20" cy="42" r="2"/>
				<circle id="Oval-7-Copy" class="st25" cx="27" cy="49" r="2"/>
				<circle id="Oval-7-Copy-2" class="st25" cx="40" cy="37" r="2"/>
				<circle id="Oval-7-Copy-3" class="st25" cx="12" cy="50" r="2"/>
				<rect id="Rectangle-26_7_" x="5" y="12" class="st20" width="40" height="2"/>
				<polygon id="Path-3_14_" class="st15" points="12.8,25.8 12.8,21.8 30.6,21.8 30.6,25.8 				"/>
				<polygon id="Path-3_15_" class="st15" points="12.8,32.8 12.8,28.8 23.6,28.8 23.6,32.8 				"/>
				<g id="Rectangle-25_8_">
					<g>
						<path id="path-62" class="st21" d="M2,0h46c1.1,0,2,0.9,2,2v6H0V2C0,0.9,0.9,0,2,0z"/>
					</g>
					<g>
						<pattern  id="path-62_2_" xlink:href="#pattern-63" patternTransform="matrix(1 0 0 -1 -92 -16715.1738)">
						</pattern>
						<path id="path-62_1_" class="st46" d="M2,0h46c1.1,0,2,0.9,2,2v6H0V2C0,0.9,0.9,0,2,0z"/>
					</g>
				</g>
				<circle id="Oval-6-Copy_6_" class="st23" cx="8" cy="4" r="1"/>
				<circle id="Oval-6-Copy_7_" class="st24" cx="12" cy="4" r="1"/>
				<circle id="Oval-6-Copy_8_" class="st25" cx="4" cy="4" r="1"/>
			</g>
		</g>
		<g id="Group-23" transform="translate(248.000000, 122.000000)">
			<path id="Combined-Shape" class="st10" d="M164,8.7c23.5,12.5,39.5,37.3,39.5,65.9c0,0.1,0,0.1,0,0.2c3.6-1.1,7.3-1.6,11.2-1.6
				c21.7,0,39.3,17.6,39.3,39.4c0,1.8-0.1,3.6-0.4,5.4H174c-5.5,0-10-4.5-10-10V8.7z"/>
			<g id="Combined-Shape_1_">
				<g>
					
						<linearGradient id="path-66_2_" gradientUnits="userSpaceOnUse" x1="-215.6851" y1="315.7281" x2="-214.9362" y2="314.7848" gradientTransform="matrix(244 0 0 -152 52639 48006.8906)">
						<stop  offset="0" style="stop-color:#9FDDFF"/>
						<stop  offset="1" style="stop-color:#7CC6EF"/>
					</linearGradient>
					<path id="path-66" class="st47" d="M44.9,151.9C19.8,150.5,0,129.6,0,104.1c0-26.2,21-47.6,47.1-47.8C55.3,23.9,84.4,0,119.2,0
						c41,0,74.3,33.4,74.3,74.6c0,0.1,0,0.1,0,0.2c3.6-1.1,7.3-1.6,11.2-1.6c21.7,0,39.3,17.6,39.3,39.4c0,20.8-16.1,37.9-36.5,39.3
						v0.1L44.9,151.9L44.9,151.9z"/>
				</g>
				<g>
					<pattern  id="path-66_4_" xlink:href="#pattern-67" patternTransform="matrix(1 0 0 -1 -43 -16649.1738)">
					</pattern>
					<path id="path-66_1_" class="st48" d="M44.9,151.9C19.8,150.5,0,129.6,0,104.1c0-26.2,21-47.6,47.1-47.8
						C55.3,23.9,84.4,0,119.2,0c41,0,74.3,33.4,74.3,74.6c0,0.1,0,0.1,0,0.2c3.6-1.1,7.3-1.6,11.2-1.6c21.7,0,39.3,17.6,39.3,39.4
						c0,20.8-16.1,37.9-36.5,39.3v0.1L44.9,151.9L44.9,151.9z"/>
				</g>
			</g>
			<path id="Path-14" class="st13" d="M69.8,48.6c-0.4,1.6-2.1,2.5-3.7,2.1c-1.6-0.4-2.5-2.1-2.1-3.7c0.9-3.3,3-6.8,5.6-10.2
				c1-1.3,2.9-1.5,4.2-0.5s1.5,2.9,0.5,4.2C72.1,43.4,70.4,46.2,69.8,48.6z M79.9,33.1c-1,1.3-2.9,1.5-4.2,0.4
				c-1.3-1-1.5-2.9-0.4-4.2c9-10.9,20.5-17.2,34.8-19c1.6-0.2,3.1,0.9,3.4,2.6s-0.9,3.1-2.6,3.4C98,17.8,87.9,23.3,79.9,33.1z"/>
			<g id="Combined-Shape_2_">
				<g>
					<path id="path-69" class="st49" d="M87.8,103.5l8.6-5.5l-2,24.9L69,115.5l10.4-6.6c-2.8-5.5-4.2-11.6-4.2-17.9
						c0-22.1,17.9-40,40-40c3.2,0,6.3,0.4,9.4,1.1l-2.3,9.7c-2.3-0.5-4.6-0.8-7-0.8c-16.6,0-30,13.4-30,30
						C85.1,95.4,86.1,99.6,87.8,103.5z M142.7,79.2l-7.5,4.9l1.1-25l25.3,7.9l-10.4,6.8c2.6,5.3,3.9,11.2,3.9,17.3
						c0,22.1-17.9,40-40,40c-2.7,0-5.4-0.3-8-0.8l2-9.8c2,0.4,4,0.6,6,0.6c16.6,0,30-13.4,30-30C145.1,86.9,144.3,82.9,142.7,79.2z"
						/>
				</g>
				<g>
					<pattern  id="path-69_2_" xlink:href="#pattern-70" patternTransform="matrix(1 0 0 -1 26 -16700.1738)">
					</pattern>
					<path id="path-69_1_" class="st50" d="M87.8,103.5l8.6-5.5l-2,24.9L69,115.5l10.4-6.6c-2.8-5.5-4.2-11.6-4.2-17.9
						c0-22.1,17.9-40,40-40c3.2,0,6.3,0.4,9.4,1.1l-2.3,9.7c-2.3-0.5-4.6-0.8-7-0.8c-16.6,0-30,13.4-30,30
						C85.1,95.4,86.1,99.6,87.8,103.5z M142.7,79.2l-7.5,4.9l1.1-25l25.3,7.9l-10.4,6.8c2.6,5.3,3.9,11.2,3.9,17.3
						c0,22.1-17.9,40-40,40c-2.7,0-5.4-0.3-8-0.8l2-9.8c2,0.4,4,0.6,6,0.6c16.6,0,30-13.4,30-30C145.1,86.9,144.3,82.9,142.7,79.2z"
						/>
				</g>
			</g>
		</g>
		<g id="Group-20" transform="translate(729.000000, 178.000000)">
			<g id="Rectangle-70">
				<g>
					
						<linearGradient id="path-73_2_" gradientUnits="userSpaceOnUse" x1="-697.2293" y1="259.564" x2="-696.2568" y2="258.5914" gradientTransform="matrix(144 0 0 -96 100403 24919.457)">
						<stop  offset="0" style="stop-color:#FAFAFA"/>
						<stop  offset="1" style="stop-color:#F5F5F5"/>
					</linearGradient>
					<path id="path-73" class="st51" d="M5.7,0h132.7c3.1,0,5.7,2.5,5.7,5.7v84.7c0,3.1-2.5,5.7-5.7,5.7H5.7C2.5,96,0,93.5,0,90.3
						V5.7C0,2.5,2.5,0,5.7,0z"/>
				</g>
				<g>
					<pattern  id="path-73_4_" xlink:href="#pattern-74" patternTransform="matrix(1 0 0 -1 438 -16705.1738)">
					</pattern>
					<path id="path-73_1_" class="st52" d="M5.7,0h132.7c3.1,0,5.7,2.5,5.7,5.7v84.7c0,3.1-2.5,5.7-5.7,5.7H5.7
						C2.5,96,0,93.5,0,90.3V5.7C0,2.5,2.5,0,5.7,0z"/>
				</g>
			</g>
			<path id="Combined-Shape_3_" class="st53" d="M5,45.7c0.6,0,1,0.4,1,1V54c0,0.6-0.4,1-1,1s-1-0.4-1-1v-7.3
				C4,46.1,4.4,45.7,5,45.7z M5,43.3c-0.6,0-1-0.5-1-1.2C4,41.5,4.4,41,5,41s1,0.5,1,1.2C6,42.8,5.6,43.3,5,43.3z"/>
			<g id="Rectangle-71">
				<g>
					<path id="path-76" class="st6" d="M12.4,6h113.2c1.3,0,2.4,1.1,2.4,2.4v79.2c0,1.3-1.1,2.4-2.4,2.4H12.4
						c-1.3,0-2.4-1.1-2.4-2.4V8.4C10,7.1,11.1,6,12.4,6z"/>
				</g>
				<g>
					<pattern  id="path-76_2_" xlink:href="#pattern-77" patternTransform="matrix(1 0 0 -1 448 -16711.1738)">
					</pattern>
					<path id="path-76_1_" class="st54" d="M12.4,6h113.2c1.3,0,2.4,1.1,2.4,2.4v79.2c0,1.3-1.1,2.4-2.4,2.4H12.4
						c-1.3,0-2.4-1.1-2.4-2.4V8.4C10,7.1,11.1,6,12.4,6z"/>
				</g>
			</g>
			<g id="Rectangle-71_1_">
				<g>
					<path id="path-79" class="st8" d="M14.4,8h108.2c1.3,0,2.4,1.1,2.4,2.4v74.2c0,1.3-1.1,2.4-2.4,2.4H14.4
						c-1.3,0-2.4-1.1-2.4-2.4V10.4C12,9.1,13.1,8,14.4,8z"/>
				</g>
				<g>
					<pattern  id="path-79_2_" xlink:href="#pattern-80" patternTransform="matrix(1 0 0 -1 450 -16713.1738)">
					</pattern>
					<path id="path-79_1_" class="st55" d="M14.4,8h108.2c1.3,0,2.4,1.1,2.4,2.4v74.2c0,1.3-1.1,2.4-2.4,2.4H14.4
						c-1.3,0-2.4-1.1-2.4-2.4V10.4C12,9.1,13.1,8,14.4,8z"/>
				</g>
			</g>
			<g id="Group-6_3_" transform="translate(19.000000, 16.000000)">
				<rect id="Rectangle-25_9_" y="3.6" class="st10" width="96" height="64.4"/>
				<g id="Rectangle-25_10_">
					<g>
						<rect id="path-82" y="0" class="st11" width="96" height="64.4"/>
					</g>
					<g>
						<pattern  id="path-82_2_" xlink:href="#pattern-83" patternTransform="matrix(1 0 0 -1 457 -16721.1738)">
						</pattern>
						<rect id="path-82_1_" y="0" class="st56" width="96" height="64.4"/>
					</g>
				</g>
				<g id="Rectangle-26_8_">
					<g>
						<polygon id="path-85" class="st13" points="6,16.7 90,16.7 90,64.4 6,64.4 						"/>
					</g>
					<g>
						<pattern  id="path-85_2_" xlink:href="#pattern-86" patternTransform="matrix(1 0 0 -1 463 -16737.875)">
						</pattern>
						<polygon id="path-85_1_" class="st57" points="6,16.7 90,16.7 90,64.4 6,64.4 						"/>
					</g>
				</g>
				<rect id="Rectangle-26_9_" x="6" y="14.3" class="st20" width="84" height="2.4"/>
				<polygon id="Path-3_16_" class="st15" points="11.7,29.7 11.7,24.9 69.1,24.9 69.1,29.7 				"/>
				<polygon id="Path-3_17_" class="st15" points="11.7,40.4 11.7,35.6 45.1,35.6 45.1,40.4 				"/>
				<polygon id="Path-3_18_" class="st15" points="11.7,48.7 11.7,43.9 33.1,43.9 33.1,48.7 				"/>
				<polygon id="Rectangle-27_1_" class="st25" points="74.4,35.8 81.6,35.8 81.6,64.4 74.4,64.4 				"/>
				<rect id="Rectangle-27-Copy_1_" x="62.4" y="47.7" class="st41" width="7.2" height="16.7"/>
				<rect id="Rectangle-27-Copy-2_1_" x="50.4" y="52.5" class="st23" width="7.2" height="11.9"/>
				<g id="Rectangle-25_11_">
					<g>
						<path id="path-88" class="st21" d="M2.4,0h91.2C94.9,0,96,1.1,96,2.4v7.1H0V2.4C0,1.1,1.1,0,2.4,0z"/>
					</g>
					<g>
						<pattern  id="path-88_2_" xlink:href="#pattern-89" patternTransform="matrix(1 0 0 -1 457 -16721.1738)">
						</pattern>
						<path id="path-88_1_" class="st58" d="M2.4,0h91.2C94.9,0,96,1.1,96,2.4v7.1H0V2.4C0,1.1,1.1,0,2.4,0z"/>
					</g>
				</g>
				<ellipse id="Oval-6-Copy_9_" class="st23" cx="9.6" cy="4.8" rx="1.2" ry="1.2"/>
				<ellipse id="Oval-6-Copy_10_" class="st24" cx="14.4" cy="4.8" rx="1.2" ry="1.2"/>
				<ellipse id="Oval-6-Copy_11_" class="st25" cx="4.8" cy="4.8" rx="1.2" ry="1.2"/>
			</g>
			<circle id="Oval-20" class="st59" cx="135" cy="48" r="5"/>
			<path id="Rectangle-73" class="st60" d="M133.2,46h2.6c0.7,0,1.2,0.5,1.2,1.2v2.6c0,0.7-0.5,1.2-1.2,1.2h-2.6
				c-0.7,0-1.2-0.5-1.2-1.2v-2.6C132,46.5,132.5,46,133.2,46z"/>
		</g>
		<g id="Group-25" transform="translate(231.000000, 113.000000)">
			<g id="Combined-Shape_4_">
				<g>
					
						<linearGradient id="path-92_2_" gradientUnits="userSpaceOnUse" x1="-201.3111" y1="323.8669" x2="-200.5697" y2="323.1035" gradientTransform="matrix(52 0 0 -52 10475 16847.3301)">
						<stop  offset="0" style="stop-color:#E6E6E6"/>
						<stop  offset="1" style="stop-color:#CCCCCC"/>
					</linearGradient>
					<path id="path-92" class="st61" d="M20,6V1.3C20,0.6,20.6,0,21.3,0h9.4C31.4,0,32,0.6,32,1.3v4.4c1.5,0.4,2.9,0.9,4.2,1.6l3-3
						c0.5-0.5,1.3-0.5,1.8,0l6.7,6.7c0.5,0.5,0.5,1.3,0,1.8L45,15.5c0.8,1.4,1.5,2.9,2,4.5h3.7c0.7,0,1.3,0.6,1.3,1.3v9.4
						c0,0.7-0.6,1.3-1.3,1.3h-3.4c-0.5,1.7-1.1,3.3-1.9,4.9l2.4,2.4c0.5,0.5,0.5,1.3,0,1.8L41,47.7c-0.5,0.5-1.3,0.5-1.8,0l-2.4-2.4
						c-1.5,0.8-3.1,1.5-4.9,1.9v3.4c0,0.7-0.6,1.3-1.3,1.3h-9.4c-0.7,0-1.3-0.6-1.3-1.3V47c-1.6-0.5-3.1-1.2-4.5-2l-2.7,2.7
						c-0.5,0.5-1.3,0.5-1.8,0L4.3,41c-0.5-0.5-0.5-1.3,0-1.8l3-3c-0.7-1.3-1.2-2.7-1.6-4.2H1.3C0.6,32,0,31.4,0,30.7v-9.4
						C0,20.6,0.6,20,1.3,20H6c0.4-1.3,1-2.6,1.7-3.9l-3.4-3.4c-0.5-0.5-0.5-1.3,0-1.8L11,4.3c0.5-0.5,1.3-0.5,1.8,0l3.4,3.4
						C17.4,7,18.7,6.4,20,6z"/>
				</g>
				<g>
					<pattern  id="path-92_4_" xlink:href="#pattern-93" patternTransform="matrix(1 0 0 -1 -60 -16640.1738)">
					</pattern>
					<path id="path-92_1_" class="st62" d="M20,6V1.3C20,0.6,20.6,0,21.3,0h9.4C31.4,0,32,0.6,32,1.3v4.4c1.5,0.4,2.9,0.9,4.2,1.6
						l3-3c0.5-0.5,1.3-0.5,1.8,0l6.7,6.7c0.5,0.5,0.5,1.3,0,1.8L45,15.5c0.8,1.4,1.5,2.9,2,4.5h3.7c0.7,0,1.3,0.6,1.3,1.3v9.4
						c0,0.7-0.6,1.3-1.3,1.3h-3.4c-0.5,1.7-1.1,3.3-1.9,4.9l2.4,2.4c0.5,0.5,0.5,1.3,0,1.8L41,47.7c-0.5,0.5-1.3,0.5-1.8,0l-2.4-2.4
						c-1.5,0.8-3.1,1.5-4.9,1.9v3.4c0,0.7-0.6,1.3-1.3,1.3h-9.4c-0.7,0-1.3-0.6-1.3-1.3V47c-1.6-0.5-3.1-1.2-4.5-2l-2.7,2.7
						c-0.5,0.5-1.3,0.5-1.8,0L4.3,41c-0.5-0.5-0.5-1.3,0-1.8l3-3c-0.7-1.3-1.2-2.7-1.6-4.2H1.3C0.6,32,0,31.4,0,30.7v-9.4
						C0,20.6,0.6,20,1.3,20H6c0.4-1.3,1-2.6,1.7-3.9l-3.4-3.4c-0.5-0.5-0.5-1.3,0-1.8L11,4.3c0.5-0.5,1.3-0.5,1.8,0l3.4,3.4
						C17.4,7,18.7,6.4,20,6z"/>
				</g>
			</g>
			
				<linearGradient id="Oval-22_2_" gradientUnits="userSpaceOnUse" x1="-202.7313" y1="322.3277" x2="-203.4628" y2="323.0424" gradientTransform="matrix(32 0 0 -32 6525 10351.8193)">
				<stop  offset="0" style="stop-color:#999999"/>
				<stop  offset="1" style="stop-color:#4D4D4D"/>
			</linearGradient>
			<circle id="Oval-22" class="st63" cx="26" cy="26" r="16"/>
			<g id="Oval-22_1_">
				<g>
					
						<linearGradient id="path-96_2_" gradientUnits="userSpaceOnUse" x1="-207.8132" y1="321.4331" x2="-207.0719" y2="320.6697" gradientTransform="matrix(18 0 0 -18 3760 5804.9604)">
						<stop  offset="0" style="stop-color:#E6E6E6"/>
						<stop  offset="1" style="stop-color:#CCCCCC"/>
					</linearGradient>
					<circle id="path-96" class="st64" cx="26" cy="26" r="9"/>
				</g>
				<g>
					<pattern  id="path-96_4_" xlink:href="#pattern-97" patternTransform="matrix(1 0 0 -1 -43 -16657.1738)">
					</pattern>
					<circle id="path-96_1_" class="st65" cx="26" cy="26" r="9"/>
				</g>
			</g>
		</g>
		<g id="Group-16" transform="translate(666.000000, 227.000000)">
			<g id="Rectangle-58">
				<g>
					<path id="path-99" class="st66" d="M23.7,22.9V12.7C23.7,9,20.7,6,17,6s-6.7,3-6.7,6.6v10.2H23.7z M17,0
						c7,0,12.8,5.7,12.8,12.7v16.3H4.2V12.7C4.2,5.7,10,0,17,0z"/>
				</g>
				<g>
					<pattern  id="path-99_2_" xlink:href="#pattern-100" patternTransform="matrix(1 0 0 -1 379.25 -16754.1738)">
					</pattern>
					<path id="path-99_1_" class="st67" d="M23.7,22.9V12.7C23.7,9,20.7,6,17,6s-6.7,3-6.7,6.6v10.2H23.7z M17,0
						c7,0,12.8,5.7,12.8,12.7v16.3H4.2V12.7C4.2,5.7,10,0,17,0z"/>
				</g>
			</g>
			<g id="Rectangle-57">
				<g>
					<rect id="path-102" y="19.3" class="st68" width="34" height="27.7"/>
				</g>
				<g>
					<pattern  id="path-102_2_" xlink:href="#pattern-103" patternTransform="matrix(1 0 0 -1 375 -16773.4551)">
					</pattern>
					<rect id="path-102_1_" y="19.3" class="st69" width="34" height="27.7"/>
				</g>
			</g>
			<rect id="Rectangle-59" x="4.2" y="16.9" class="st20" width="6.1" height="2.4"/>
			<rect id="Rectangle-59-Copy-2" y="44.6" class="st20" width="34" height="2.4"/>
			<rect id="Rectangle-59-Copy" x="23.7" y="16.9" class="st20" width="6.1" height="2.4"/>
			<g id="Combined-Shape_5_">
				<g>
					<path id="path-105" class="st70" d="M15.8,32.1v-5c0-0.7,0.5-1.2,1.2-1.2s1.2,0.5,1.2,1.2v5c1.4,0.5,2.4,1.8,2.4,3.4
						c0,2-1.6,3.6-3.6,3.6s-3.6-1.6-3.6-3.6C13.4,34,14.4,32.6,15.8,32.1z"/>
				</g>
				<g>
					<pattern  id="path-105_2_" xlink:href="#pattern-106" patternTransform="matrix(1 0 0 -1 388.3571 -16780.084)">
					</pattern>
					<path id="path-105_1_" class="st71" d="M15.8,32.1v-5c0-0.7,0.5-1.2,1.2-1.2s1.2,0.5,1.2,1.2v5c1.4,0.5,2.4,1.8,2.4,3.4
						c0,2-1.6,3.6-3.6,3.6s-3.6-1.6-3.6-3.6C13.4,34,14.4,32.6,15.8,32.1z"/>
				</g>
			</g>
			<path id="Path-8" class="st72" d="M8.2,6.5c2.1-3,5-4.6,8.7-4.8"/>
		</g>
		<g id="Group-24" transform="translate(17.000000, 194.000000)">
			<g id="Rectangle-74">
				<g>
					<path id="path-108" class="st4" d="M4,0h32c2.2,0,4,1.8,4,4v72c0,2.2-1.8,4-4,4H4c-2.2,0-4-1.8-4-4V4C0,1.8,1.8,0,4,0z"/>
				</g>
				<g>
					<pattern  id="path-108_2_" xlink:href="#pattern-109" patternTransform="matrix(1 0 0 -1 -274 -16721.1738)">
					</pattern>
					<path id="path-108_1_" class="st73" d="M4,0h32c2.2,0,4,1.8,4,4v72c0,2.2-1.8,4-4,4H4c-2.2,0-4-1.8-4-4V4C0,1.8,1.8,0,4,0z"/>
				</g>
			</g>
			<g id="Combined-Shape_6_">
				<g>
					<path id="path-111" class="st11" d="M11,2v1c0,1.1,0.9,2,2,2h15c1.1,0,2-0.9,2-2V2h6c1.1,0,2,0.9,2,2v71c0,1.1-0.9,2-2,2H4
						c-1.1,0-2-0.9-2-2V4c0-1.1,0.9-2,2-2H11z"/>
				</g>
				<g>
					<pattern  id="path-111_2_" xlink:href="#pattern-112" patternTransform="matrix(1 0 0 -1 -272 -16723.1738)">
					</pattern>
					<path id="path-111_1_" class="st74" d="M11,2v1c0,1.1,0.9,2,2,2h15c1.1,0,2-0.9,2-2V2h6c1.1,0,2,0.9,2,2v71c0,1.1-0.9,2-2,2H4
						c-1.1,0-2-0.9-2-2V4c0-1.1,0.9-2,2-2H11z"/>
				</g>
			</g>
			<g id="Rectangle-26_10_">
				<g>
					<path id="path-114" class="st13" d="M2,17h36v58c0,1.1-0.9,2-2,2H4c-1.1,0-2-0.9-2-2V17z"/>
				</g>
				<g>
					<pattern  id="path-114_2_" xlink:href="#pattern-115" patternTransform="matrix(1 0 0 -1 -272 -16738.1738)">
					</pattern>
					<path id="path-114_1_" class="st75" d="M2,17h36v58c0,1.1-0.9,2-2,2H4c-1.1,0-2-0.9-2-2V17z"/>
				</g>
			</g>
			<rect id="Rectangle-67_1_" x="5" y="9" class="st15" width="13" height="4"/>
			<circle id="Oval-21" class="st76" cx="27" cy="3" r="1"/>
			<polygon id="Path-3_19_" class="st16" points="5,26.5 5,22.5 22,22.5 22,26.5 			"/>
			<polygon id="Path-3_20_" class="st16" points="5,31 5,29 31.4,29 31.4,31 			"/>
			<polygon id="Path-3_21_" class="st16" points="5,64 5,62 34.8,62 34.8,64 			"/>
			<polygon id="Path-3_22_" class="st16" points="5,68 5,66 18.2,66 18.2,68 			"/>
			<polygon id="Path-3_23_" class="st16" points="5,72 5,70 31.4,70 31.4,72 			"/>
			<polygon id="Path-3_24_" class="st16" points="5,35 5,33 27,33 27,35 			"/>
			<polygon id="Rectangle-68_2_" class="st17" points="5,38 35,38 35,59.4 5,59.4 			"/>
			<path id="Path-13_1_" class="st13" d="M18,46.7v4.6c0,0.4,0.3,0.7,0.7,0.7c0.1,0,0.3,0,0.4-0.1l3.6-2.3c0.3-0.2,0.4-0.6,0.2-1
				c-0.1-0.1-0.1-0.2-0.2-0.2l-3.6-2.3c-0.3-0.2-0.7-0.1-1,0.2C18,46.4,18,46.6,18,46.7z"/>
		</g>
	</g>
</g>
</svg>
